<?xml version="1.0" encoding="utf-8"?>
<!-- Generator: Adobe Illustrator 23.0.1, SVG Export Plug-In . SVG Version: 6.00 Build 0)  -->
<svg version="1.1" id="Layer_1" xmlns="http://www.w3.org/2000/svg" xmlns:xlink="http://www.w3.org/1999/xlink" x="0px" y="0px"
	 width="708.66144px" height="708.66144px" viewBox="0 0 708.66144 708.66144" enable-background="new 0 0 708.66144 708.66144"
	 xml:space="preserve">
<g>
	<g>
		<path fill="#97A597" d="M566.31335,345.1228c6.05292-1.95422,11.82379-4.35754,17.27557-7.44925
			c0.15021-2.27518,0.14697-4.48389,0.46545-6.64517c1.15546-7.83948,4.76379-14.40683,10.87769-19.42944
			c2.63293-2.16299,5.59991-3.95474,8.54822-5.6889c3.30676-1.94501,6.76294-3.63629,10.15619-5.43396
			c5.6308-2.98306,10.49396-6.90784,14.58118-11.80289c0.83527-1.0004,1.69702-2.0126,2.69946-2.83249
			c2.19293-1.79355,4.7948-1.24365,5.74902,1.43237c0.72534,2.034,1.18042,4.29935,1.12451,6.44534
			c-0.08459,3.24646-0.49469,6.52563-1.16394,9.70728c-1.50635,7.16028-4.05725,13.95135-7.93854,20.20059
			c-6.76233,10.88785-16.38989,17.08524-29.30414,17.84293c-2.93414,0.17212-5.88336,0.26828-8.8183,0.1738
			c-1.61719-0.05203-2.9967,0.20496-4.41272,1.00769c-7.28137,4.12769-15.15039,6.90186-22.95148,9.83157
			c-4.28217,1.60815-8.53778,3.28693-12.80273,4.94067c-0.51764,0.20074-1.01874,0.44403-1.69299,0.74026
			c0.35126,0.25995,0.51776,0.49051,0.69397,0.49811c5.83319,0.25189,11.44135,1.83566,17.14771,2.84177
			c3.93738,0.69418,7.90314,1.29678,11.88153,1.67126c5.34442,0.50308,10.58203-0.47757,15.79156-1.59653
			c1.74902-0.3757,3.5351-0.73636,5.31281-0.78336c2.63666-0.06976,4.20166,1.58963,3.85706,4.20798
			c-0.20593,1.56442-0.71906,3.27921-1.64221,4.51794c-1.79242,2.40515-3.77533,4.74619-6.02686,6.71667
			c-6.63147,5.8038-14.57776,8.85721-23.1347,10.56311c-13.93964,2.77905-26.9986,0.22568-39.23907-6.64813
			c-3.46008-1.94305-6.46851-4.69037-9.68353-7.06964c-0.32104-0.23764-0.638-0.48102-1.05066-0.7926
			c-4.16101,3.45813-7.90051,7.17099-10.23395,12.09238c-0.13989,0.29507-0.24524,0.6106-0.41537,0.88654
			c-0.53104,0.86111-1.31122,1.24771-2.29364,0.95398c-0.96713-0.28918-1.535-1.03003-1.44333-2.02444
			c0.08075-0.87613,0.30698-1.77576,0.65674-2.5838c1.37775-3.18341,3.35474-5.9722,5.77478-8.45483
			c3.96075-4.06317,8.43604-7.46979,13.25171-10.44788c0.61444-0.37994,1.20044-0.80573,1.80878-1.21655
			c-0.11896-0.32843-0.1629-0.57404-0.28564-0.77036c-3.01569-4.82361-2.67834-9.58978,0.21271-14.32687
			c2.28076-3.73697,5.19061-6.94177,8.50769-9.75327c3.61469-3.06375,7.39563-5.93094,11.02203-8.98145
			c2.74805-2.31158,5.45465-4.68692,8.0199-7.19724c2.75885-2.69986,4.92883-5.87891,6.74652-9.29135
			c0.65271-1.2254,1.27411-2.4794,2.05194-3.62375c1.56549-2.30338,4.17065-2.30423,5.53705,0.11469
			c0.74036,1.31061,1.16473,2.88153,1.3905,4.3862c0.77362,5.15796-0.01105,10.27429-0.75519,15.36636
			C571.26141,333.61224,569.28735,339.47012,566.31335,345.1228z M588.22986,334.80112
			c0.72723-0.42871,1.28516-0.71881,1.80273-1.06857c7.18542-4.85596,13.32977-10.77606,18.2843-17.91113
			c0.6524-0.93954,1.27893-1.90509,2.01495-2.77612c0.63519-0.75165,1.48621-0.9975,2.41931-0.46423
			c0.91272,0.52167,1.18683,1.34695,0.90771,2.30276c-0.17987,0.616-0.49799,1.20535-0.83142,1.76013
			c-1.01038,1.68051-2.08478,3.3226-3.08661,5.00793c-2.91089,4.89676-6.49445,9.20374-10.99792,12.72385
			c-0.37531,0.29333-0.64606,0.72043-1.21576,1.37146c2.29462-0.39182,4.1319-0.77045,5.98718-1.00986
			c4.96216-0.64032,9.24292-2.69403,12.77338-6.20764c8.42993-8.38977,13.74518-18.40091,15.34644-30.24692
			c0.28796-2.12988,0.71045-4.32764,0.12231-6.52728c-0.27527,0.07742-0.45349,0.08118-0.56787,0.16852
			c-0.32379,0.24741-0.63544,0.51456-0.92743,0.79913c-6.79547,6.62405-14.55072,11.82907-23.09222,15.95239
			c-3.07513,1.4845-6.0697,3.24191-8.83142,5.24625c-4.85376,3.52258-8.00928,8.34024-9.49475,14.17249
			C588.30908,330.18958,587.79694,332.32529,588.22986,334.80112z M529.08502,370.11401
			c1.54169,0.87799,3.06165,1.79736,4.63037,2.62402c2.2395,1.18011,4.52979,2.26373,6.77228,3.43832
			c9.91797,5.19485,20.37567,6.70847,31.37366,4.69125c8.96082-1.64355,16.67084-5.59616,22.8988-12.30811
			c0.58105-0.62613,1.08716-1.32172,1.75586-2.14191c-0.59052-0.09793-0.8219-0.18192-1.04553-0.16486
			c-0.65057,0.04962-1.29956,0.12872-1.94659,0.21539c-6.81238,0.91238-13.63782,1.79062-20.50287,0.6813
			c-4.83582-0.78137-9.64697-1.72351-14.45551-2.66336c-5.96484-1.16583-11.93335-2.03748-17.9884-0.71442
			c-1.54413,0.3374-3.12549,0.62781-4.61157,1.81763c1.96411,0.54474,3.70093,0.97412,5.40466,1.50888
			c4.92419,1.54547,9.92664,2.72769,15.06879,3.22324c2.51361,0.24225,5.04138,0.34491,7.56458,0.47867
			c1.33453,0.0708,2.14868,0.65457,2.28864,1.73874c0.13647,1.0574-0.50836,1.96521-1.7608,2.30194
			c-0.62097,0.16699-1.2937,0.22391-1.93921,0.20404c-6.38495-0.19601-12.71893-0.70059-18.81909-2.84448
			c-2.46216-0.8653-4.96985-1.62393-7.49738-2.27332C533.98077,369.33737,531.62598,369.134,529.08502,370.11401z
			 M540.15002,355.49826c0.12189,0.10788,0.24371,0.21573,0.36566,0.32361c4.43567-1.83963,8.87994-3.65906,13.29761-5.54092
			c0.65588-0.27939,1.24756-0.79144,1.76434-1.30179c2.6853-2.65152,5.05878-5.53445,6.82385-8.91022
			c3.97247-7.59726,5.18829-15.75562,5.0849-24.19849c-0.00647-0.52594-0.09229-1.05093-0.1842-2.03903
			c-0.70386,0.86673-1.13257,1.32156-1.47888,1.83228c-3.88342,5.72693-8.59912,10.67563-13.95959,15.03217
			c-3.42334,2.78223-6.91644,5.49002-10.19641,8.43372c-2.4812,2.22675-4.79486,4.67239-6.94763,7.21967
			c-1.13031,1.33752-1.94995,3.03058-2.56171,4.69138c-0.91095,2.47299-0.44727,4.89685,0.87329,7.27231
			c2.03748-2.40619,3.77319-4.77484,5.83234-6.81769c3.65143-3.62274,7.47931-7.0694,11.27454-10.54471
			c1.51898-1.39096,2.56506-1.4968,3.3847-0.55603c0.80139,0.91995,0.53107,1.94214-0.95062,3.31836
			c-2.9931,2.78003-6.02112,5.52249-9.00238,8.31509C542.3855,353.13733,541.28741,354.33875,540.15002,355.49826z"/>
		<path fill="#97A597" d="M151.61641,358.59991c-0.81036,0.87924-1.3759,1.46533-1.91116,2.07785
			c-5.72672,6.55365-12.90999,9.23083-21.5042,7.94333c-9.246-1.38516-17.32331-5.1756-23.83656-12.00543
			c-2.50116-2.62271-4.57568-5.56665-5.84283-8.97888c-0.50138-1.35013-0.83372-2.84406-0.84726-4.27628
			c-0.02295-2.42728,1.48045-3.75473,3.9088-3.68042c0.96715,0.0296,1.94407,0.23996,2.88663,0.48364
			c3.8216,0.98804,7.58942,0.84964,11.36147-0.29831c2.73268-0.8316,5.48624-1.60858,8.26092-2.28513
			c4.65628-1.13531,9.23891-0.84286,13.69742,0.98624c0.37297,0.15298,0.76089,0.26956,1.16862,0.41241
			c-0.57233-3.60541-10.34831-16.26035-15.68651-20.29395c-3.17896,2.43677-6.89819,3.86652-10.73059,4.99646
			c-10.04434,2.96146-19.53034-0.75699-24.84005-9.77518c-1.78033-3.02377-3.35293-6.1709-4.98998-9.27771
			c-2.27271-4.31314-5.18127-8.11496-8.91085-11.27475c-0.56026-0.47467-1.11295-0.9678-1.60766-1.50867
			c-2.0894-2.28424-1.7054-4.93903,1.11626-6.19241c2.0705-0.91971,4.29708-1.6539,6.52805-2.01974
			c14.80922-2.42831,28.12646,0.53613,38.99431,11.45273c2.04794,2.0571,3.67162,4.58276,5.25649,7.0433
			c2.08947,3.2439,2.995,6.87543,2.62657,10.75473c-0.15029,1.58255,0.33997,2.71619,1.55843,3.83124
			c4.79347,4.38666,8.68852,9.54208,12.1071,15.03806c3.0623,4.92313,5.94232,9.95959,8.9097,14.94193
			c0.40529,0.68051,0.85081,1.33704,1.32547,2.07935c0.20937-0.246,0.37045-0.34668,0.37215-0.45001
			c0.0732-4.48511,0.19901-8.97086,0.17075-13.4556c-0.02054-3.25897-0.10178-6.53098-0.42183-9.7709
			c-0.3326-3.367-1.56578-6.48822-3.30972-9.40594c-0.71036-1.18842-1.38658-2.4191-1.89148-3.70398
			c-1.07556-2.73718,0.32365-5.06146,3.26291-5.15552c1.58118-0.05057,3.27649,0.27408,4.757,0.84955
			c5.03761,1.95813,9.22955,5.20035,12.87767,9.14182c4.89075,5.28403,7.93202,11.55634,9.54979,18.52264
			c1.82175,7.84473,2.51825,15.79596,2.02255,23.84747c-0.2961,4.8092-2.29292,9.13385-3.82761,13.85739
			c1.33827,0.29889,2.66956,0.59399,3.99969,0.8942c0.63397,0.1431,1.39961,0.12585,1.86226,0.49023
			c0.49854,0.39267,0.96141,1.14316,0.97018,1.74438c0.00677,0.4668-0.62836,1.21219-1.11983,1.35873
			c-0.91106,0.27173-1.97665,0.42435-2.88724,0.22086c-2.37282-0.53018-4.81891-1.00729-7.01675-1.99368
			c-6.34688-2.84842-11.13069-7.63449-15.31256-13.07297C153.68927,361.41379,152.74068,360.10764,151.61641,358.59991z
			 M119.41933,315.93179c-0.69675-0.46896-1.1869-0.90909-1.75917-1.16687c-5.05318-2.27628-10.11004-4.54526-15.19167-6.75699
			c-1.37325-0.59769-2.04688-1.36636-1.80031-2.47659c0.24195-1.08948,1.21567-1.70386,2.66429-1.60458
			c0.56319,0.03857,1.13286,0.16672,1.67175,0.34042c1.39723,0.45038,2.80949,0.87582,4.16129,1.44144
			c4.12984,1.72797,8.23404,3.51721,12.3187,5.26996c0.09111-1.71585-0.2327-3.11932-1.45522-5.14865
			c-2.16625-3.59589-4.80559-6.79779-8.19051-9.33014c-8.50823-6.36533-18.25236-8.431-28.63994-8.0827
			c-2.14067,0.07178-4.26582,0.60617-6.8535,0.99594c0.88502,0.8992,1.35689,1.43066,1.88173,1.90332
			c2.9981,2.70001,5.51932,5.79105,7.55247,9.26974c1.48271,2.5369,2.84921,5.14233,4.35545,7.6647
			c1.12765,1.88837,2.21416,3.84842,3.63477,5.50592c4.26308,4.974,9.68644,7.15045,16.19335,5.7485
			c2.69304-0.58017,5.27496-1.68808,7.8912-2.60236C118.35578,316.72754,118.78188,316.3356,119.41933,315.93179z
			 M147.88805,355.79495c-0.72922-0.34045-1.14421-0.57913-1.58827-0.73486c-7.21706-2.53088-14.63515-3.15738-22.20582-2.3248
			c-0.80851,0.0889-1.69223,0.38403-2.40846,0.15988c-0.65519-0.20508-1.39486-0.89832-1.60281-1.53732
			c-0.17022-0.52307,0.21233-1.47656,0.66733-1.88882c0.5639-0.51093,1.43027-0.77234,2.20956-0.94662
			c3.446-0.77075,6.93949-1.10986,10.45991-0.69211c3.55228,0.42154,7.09265,0.94327,10.80505,1.44357
			c-0.23724-0.39984-0.37833-0.77313-0.63043-1.04248c-4.86331-5.19589-10.76328-7.57263-17.8737-6.30588
			c-2.64389,0.47101-5.25193,1.19693-7.83324,1.95358c-4.47197,1.31076-8.95808,1.7547-13.53516,0.655
			c-0.45351-0.10895-0.92186-0.15613-1.95125-0.32535c0.96951,1.72446,1.59138,3.11771,2.46191,4.33286
			c6.17601,8.621,14.78996,13.01373,25.12637,14.48096C137.23296,364.05087,142.84195,361.20013,147.88805,355.79495z
			 M170.3931,369.85092c0.21188-0.81424,0.34988-1.17365,0.39449-1.54428c0.25301-2.10306,0.42528-4.21735,0.73242-6.31207
			c1.1151-7.6051,0.67503-15.15942-0.85966-22.64523c-2.0833-10.16174-7.46791-18.15726-16.15471-23.88126
			c-0.69749-0.45959-1.44984-0.83597-2.25708-1.29691c-0.08659,0.48309-0.16705,0.65012-0.1315,0.78702
			c0.10201,0.3927,0.24121,0.77686,0.383,1.15799c1.57762,4.241,2.57104,8.62106,2.65573,13.1413
			c0.09166,4.89163-0.03462,9.78769-0.08794,14.68158c-0.06131,5.62958,1.46359,10.79871,4.46596,15.54233
			c0.41524,0.65607,0.9016,1.26703,1.35506,1.8989c0.06654-1.25342-0.2332-2.33746-0.43324-3.43961
			c-1.11862-6.16269-0.76083-12.36316-0.42177-18.56061c0.02194-0.40091,0.14528-0.80212,0.26245-1.19083
			c0.32407-1.07498,1.02243-1.6843,2.18045-1.49356c1.20383,0.19824,1.53828,1.06851,1.47237,2.16904
			c-0.0244,0.40744-0.08185,0.81424-0.08369,1.2215c-0.02028,4.48801-0.16673,8.98074-0.01178,13.46295
			c0.17905,5.17972,2.01266,9.87784,4.83633,14.19287C169.10988,368.38379,169.65446,368.94394,170.3931,369.85092z"/>
	</g>
	<g>
		<path fill="#cda56b" d="M317.35928,337.82574c0.20615-0.12839,0.31009-0.4082,0.37842-0.65601
			c1.22266-4.43222,1.3457-9.15787,1.75961-13.71808c0.44077-4.85596,0.85458-9.71445,1.32693-14.5675
			c1.04999-10.81696,2.18958-21.62537,3.21118-32.44492c0.15051-1.59372,0.06775-3.27121-0.25552-4.83807
			c-2.30838-11.18698-2.10367-22.25067,1.452-33.16441c1.5903-4.88113,4.01163-9.29579,7.71823-12.92445
			c5.39578-5.28221,13.27365-7.07317,20.35873-3.95296c6.77246,2.98254,11.84879,10.7236,11.19003,18.22749
			c-0.1803,2.04414-3.13913,7.65515-5.53812,4.38655c-0.53424-0.72787-0.70248-1.65121-0.90585-2.53091
			c-0.77618-3.35762-2.39432-6.68828-5.23837-8.63441c-1.43457-0.98164-3.33072-1.56302-4.91376-0.84494
			c-1.40735,0.6384-2.21149,2.11987-2.82205,3.53954c-6.2052,14.42841-3.73758,34.33205,0.29855,49.01823
			c1.57654,5.73636,4.1763,12.38812,8.73901,16.42972c0.58295,0.51636,1.2879,1.01123,2.06393,0.94638
			c0.50134-0.0419,0.95322-0.31537,1.35178-0.62241c1.42261-1.09598,2.58591-2.7327,3.41788-4.3139
			c1.74826-3.32275,3.38333-6.71179,4.91183-10.14194c2.46057-5.52176,4.82104-11.08865,7.16852-16.65979
			c0.47015-1.11578,0.84933-2.31561,1.00327-3.51111c0.6976-5.41757,2.15381-10.55966,5.29602-15.27177
			c-0.47754-0.84309-0.96915-1.67569-1.4278-2.52605c-6.22739-11.54588-1.39038-25.61046,10.54459-30.27266
			c7.43668-2.90504,14.49142-1.67314,20.93549,2.85379c5.97308,4.19601,9.66211,10.13408,11.97128,16.93138
			c1.0162,2.99121,1.61023,6.12584,2.47668,9.5107c2.68533-1.24213,5.43582-2.42445,8.08099-3.80803
			c0.58252-0.30469,0.84787-1.29883,1.16245-2.01784c1.17551-2.68692,2.17139-5.46384,3.51895-8.05937
			c0.689-1.32698,1.82373-2.55182,3.03275-3.45279c2.58398-1.92564,5.79501-0.95671,6.67355,2.12527
			c0.51831,1.81825,0.51385,3.88129,0.31509,5.78952c-0.51605,4.95415-1.30441,9.87926-1.90982,14.82507
			c-0.21738,1.77617-0.22208,3.57837,0.1026,5.5018c0.2601-0.75436,0.54071-1.50238,0.77722-2.2641
			c3.87878-12.49248,9.31519-24.24345,16.81296-34.98839c1.86667-2.67516,3.94196-5.2115,6.02603-7.72482
			c0.82288-0.99234,1.85556-1.8587,2.92398-2.59076c3.80026-2.60374,8.13095-1.62236,10.53131,2.34805
			c1.56366,2.58643,2.07788,5.48662,2.2691,8.44196c0.50372,7.78503-0.12521,15.51543-1.23843,23.21635
			c-0.46573,3.22171-0.96097,6.43916-1.11356,9.8175c0.44702-0.6237,0.91071-1.23622,1.33853-1.8728
			c5.25574-7.82034,11.01196-15.23625,17.79749-21.80188c1.40277-1.35732,2.90298-2.6682,4.53839-3.72058
			c4.63364-2.98175,9.7121-1.41982,12.01971,3.59328c1.30139,2.82706,1.68372,5.84377,1.19238,8.8723
			c-1.20294,7.41525-2.29462,14.86424-3.91699,22.19208c-2.38275,10.76202-5.229,21.42068-7.80273,32.14142
			c-2.27881,9.49207-3.59561,19.10425-3.27393,28.89871c0.0939,2.85901,0.36118,5.68185,1.30316,8.56165
			c1.40625-0.54526,1.86148-2.39325,2.43195-3.64594c0.73407-1.612,1.42389-3.2442,2.06848-4.89404
			c4.52942-11.59296,7.44275-23.91605,11.16437-35.78986c1.00323-3.20206,1.09021-6.21414,0.52667-9.56534
			c-2.29944-13.67361,0.7066-26.16109,9.49915-37.02023c4.47449-5.52611,10.20746-9.07268,17.39221-10.06271
			c10.87231-1.49817,20.04846,7.82481,18.25525,18.66463c-1.43597,8.68016-6.66614,14.36143-14.53961,17.74037
			c-2.22992,0.957-4.68359,1.39529-7.039,2.05573c-0.54199,0.15198-1.10229,0.2392-1.61365,0.34763
			c-1.64551,6.45013-0.40479,23.77472,4.76416,28.26624c0.83771-0.5932,1.88861-1.09946,2.61505-1.90005
			c1.64185-1.80945,3.27557-3.66104,4.64453-5.67752c6.52582-9.61197,12.26007-19.69669,17.64075-29.98639
			c0.94647-1.80994,1.87042-3.6347,2.89899-5.39761c0.77679-1.33128,1.86902-1.73906,3.07355-1.35628
			c1.39124,0.44211,2.03363,1.82983,1.4129,3.39333c-0.51074,1.28659-1.23981,2.48456-1.82129,3.74527
			c-5.75885,12.48557-12.52209,24.42719-19.68127,36.14694c-1.35248,2.21411-2.92023,4.37195-4.73615,6.21295
			c-4.48169,4.54382-9.92999,5.17419-15.43127,1.91373c-5.02106-2.97589-8.85107-7.19058-11.97479-12.07718
			c-0.3952-0.61823-0.78351-1.24088-1.18347-1.85596c-0.03809-0.0585-0.13727-0.07727-0.40063-0.21564
			c-0.22552,0.67279-0.46747,1.31256-0.65552,1.9678c-3.08606,10.75476-6.10504,21.5293-9.28461,32.25629
			c-0.83441,2.81525-2.04987,5.5723-3.17245,8.30978c-0.94485,2.30405-2.17502,4.58572-4.14117,6.11392
			c-4.42441,3.43884-9.28412,0.42902-12.09451-3.45868c-3.58115-4.95386-5.85489-10.37683-7.04691-16.37103
			c-2.45651-12.35278-2.1044-24.69116,0.24869-37.02472c1.99991-10.48254,5.35828-20.53281,9.39572-30.38116
			c1.8558-4.52679,3.65182-9.07811,5.61273-13.9615c-1.33646,0.23965-1.93567,1.02589-2.5936,1.6214
			c-4.08603,3.6983-7.51147,7.97089-10.5401,12.54907c-6.35214,9.60222-11.33035,19.85558-14.40381,30.98976
			c-0.83804,3.03586-2.42279,4.461-4.99554,4.57343c-2.70529,0.11819-4.92523-1.42337-5.74042-4.3862
			c-0.55841-2.02957-0.83493-4.16779-0.97861-6.27509c-0.69412-10.17764,0.42227-20.24222,2.13123-30.25311
			c1.27844-7.48889,2.65686-14.96069,3.97656-22.44263c0.18216-1.03265,0.2821-2.0798,0.4881-3.63264
			c-0.83389,0.71487-1.33398,1.06287-1.73581,1.50098c-3.11029,3.39087-5.66144,7.18286-7.92245,11.17627
			c-6.51685,11.51004-10.59976,23.87871-12.64529,36.89952c-0.91147,5.80206-1.30203,11.68576-1.93747,17.53149
			c-0.10568,0.97202-0.13605,1.97375-0.40518,2.90265c-1.03476,3.57147-5.16376,4.70596-7.75574,2.04251
			c-0.98914-1.01636-1.69257-2.40338-2.24237-3.73837c-2.15662-5.23636-3.46887-10.71136-4.36432-16.29559
			c-1.11743-6.96844-1.61371-13.95963-0.92697-21.00636c0.04465-0.45799,0.0058-0.92412,0.0058-1.73317
			c-2.5332,1.23206-4.78619,2.32779-7.16769,3.48605c-0.04947,0.73103-0.12607,1.44379-0.14185,2.15787
			c-0.29855,13.535-4.5014,25.8428-11.92426,37.05432c-1.78525,2.69647-4.0025,5.1976-6.3902,7.38583
			c-5.01849,4.59921-10.84534,5.04266-16.7066,1.57141c-4.56384-2.70288-7.84622-6.65448-10.25662-11.29022
			c-1.31165-2.52255-2.22064-5.25458-3.30923-7.89294c-0.20502-0.49704-0.40015-0.99811-0.75565-1.88675
			c-1.18146,2.87167-2.19897,5.35565-3.22507,7.83609c-1.98135,4.7897-3.70795,9.82651-6.63086,14.15213
			c-4.50546,6.66757-11.94086,7.72525-18.69125,3.55502c-6.7774-4.18692-11.84543-10.98172-15.68387-17.84427
			c-0.35544-0.63541-0.75211-1.24799-1.14029-1.86444c-0.02795-0.0444-0.14325-0.03384-0.41132-0.08768
			c-0.17636,1.67224-0.40286,3.33151-0.51877,4.99844c-0.70294,10.10886-1.28891,20.22684-2.10327,30.32654
			c-0.28754,3.5657-0.7037,7.11954-1.16455,10.66656c-0.41241,3.17438-0.54929,6.64594-1.95026,9.57452
			c-0.98553,2.06018-2.80356,3.86127-5.06027,4.21194c-1.37622,0.21387-2.78705-0.12384-4.07117-0.66309
			c-5.31015-2.22992-9.03488-7.56863-11.9816-12.28857c-5.59109-8.95557-9.23068-18.7377-12.05185-28.84818
			c-3.10623-11.13211-4.89343-22.50064-5.90762-34.00024c-0.06927-0.78555-0.18475-1.56702-0.67722-2.41461
			c-0.22189,0.62375-0.47821,1.23764-0.66031,1.8728c-1.68832,5.88898-3.31787,11.79529-5.06976,17.66516
			c-0.55737,1.86758-1.26874,3.72763-2.18826,5.44168c-3.02719,5.64307-8.4545,7.61362-14.33511,5.06506
			c-2.13574-0.9256-4.20956-2.24628-5.9465-3.79596c-7.39966-6.60178-11.53407-15.09903-13.76726-24.62503
			c-0.2215-0.94482-0.41284-1.8967-0.66678-3.06995c-5.77446,0.59689-9.18739-2.88791-12.39661-7.09827
			c-0.05228,0.77292-0.14719,1.54562-0.15047,2.31873c-0.07561,17.7337-0.19608,35.4537-0.46962,53.17621
			c-0.0889,5.7587-0.29216,11.57028-1.67003,17.1893c-0.4801,1.95792-1.12418,3.92767-2.36754,5.5145
			c-2.57553,3.28696-6.75526,3.12836-10.11877,1.20105c-3.32935-1.90775-5.82072-4.72952-8.09235-7.74762
			c-5.02028-6.67001-8.34209-14.21411-11.117-22.01425c-4.30273-12.0947-6.52477-24.61426-7.37579-37.39294
			c-0.27675-4.15543-0.43253-8.31885-0.92143-12.55829c-0.1866,0.87927-0.42078,1.75146-0.55238,2.63889
			c-1.31833,8.88977-2.54031,17.7948-3.96524,26.66733c-0.58421,3.63776-1.40694,7.42184-2.56447,10.92218
			c-0.64447,1.94888-1.68578,3.8609-3.38992,5.00516c-3.33711,2.24078-7.03738,0.48849-9.66687-1.9426
			c-4.9398-4.56711-7.75594-11.21347-9.83125-17.48718c-2.42509-7.33102-3.6727-14.98859-4.43079-22.65546
			c-0.72452-7.32755-1.03052-14.66728-0.48103-22.45929c-2.9734,2.32925-5.15764,5.54295-8.10095,7.97411
			c-1.30225,1.07565-2.76006,2.06622-4.42714,2.33798c-6.72983,1.09703-12.02355-7.37378-11.56893-13.24069
			c0.04928-0.636,0.2126-1.29283,0.46823-1.87665c0.72663-1.65918,2.89774-2.04143,4.14066-0.70811
			c0.82188,0.88164,1.11375,2.11539,1.4476,3.27354c0.75771,2.62863,1.95303,5.24393,4.0591,6.98985
			c0.47322,0.39232,1.0265,0.7489,1.64113,0.75891c0.53117,0.00867,1.02924-0.24297,1.48795-0.51097
			c5.06027-2.95641,9.41455-8.98599,11.84375-14.21457c1.55582-3.34955,5.86449-3.73486,8.16408-0.48711
			c1.12241,1.58517,1.53311,3.40773,1.66653,5.31053c0.47447,6.7666,0.95329,13.53291,1.42261,20.29988
			c0.49983,7.20691,1.21829,14.57672,2.6499,21.72876c0.73434,3.66867,1.6584,7.30103,2.82571,10.85654
			c0.59076,1.79944,1.24294,3.57877,1.96017,5.33163c0.58328,1.42554,1.11623,3.60147,2.37927,4.58493
			c3.10754-4.07599,3.49429-10.71448,4.38239-15.61691c1.89291-10.44943,3.43158-20.96616,5.48787-31.38174
			c1.32661-6.71973,3.30692-13.31099,5.02145-19.95282c0.22339-0.86536,0.53932-1.72304,0.93227-2.52559
			c1.69922-3.47049,5.94751-3.98232,8.16205-0.79959c1.02618,1.47482,1.68288,3.39896,1.91705,5.19627
			c0.67511,5.18198,1.19701,10.3941,1.51526,15.61049c0.93625,15.34578,2.37775,30.636,4.97844,45.79286
			c1.85599,10.81659,4.58447,21.40662,9.17004,31.43939c1.01479,2.22021,2.02156,4.45261,4.14827,6.46442
			c2.67976-7.72528,3.51262-15.98788,3.58769-24.12384c0.07831-8.48907-0.00075-16.95795,0.10295-25.45966
			c0.11818-9.68967,0.22417-19.37949,0.33189-29.06927c0.0345-3.10295-0.10545-6.2077-0.15697-9.31178
			c-0.03926-2.36555,0.98982-3.87251,2.87158-4.22945c1.75792-0.33342,3.41489,0.58882,4.19968,2.61574
			c0.97212,2.51074,1.71553,5.10907,2.63861,7.64009c0.75488,2.0699,1.55052,4.13281,2.48013,6.12796
			c0.5088,1.09198,1.2562,2.1015,2.03668,3.02994c0.75194,0.89447,1.76091,1.41153,3.27722,1.08749
			c0-0.9227-0.02106-1.80295,0.00327-2.68192c0.21968-7.93932,2.25923-15.33002,6.7466-21.94939
			c2.71649-4.00717,6.15785-7.19524,10.73648-8.99164c2.30991-0.90628,4.68536-1.42761,7.19073-1.04523
			c6.44666,0.98396,11.01959,6.35188,11.17905,13.23605c0.09341,4.03351-0.9903,7.7617-3.28415,11.0993
			c-2.58099,3.75543-5.79272,6.85789-9.71832,9.19792c-0.69818,0.4162-1.41046,0.80881-2.39374,1.37097
			c0.40585,3.0235,0.72711,6.09995,1.2468,9.14252c1.00641,5.89252,2.49902,11.66086,4.86227,17.17355
			c0.75021,1.75003,0.77667,1.73871,2.36096,3.03043c0.62106-0.67105,1.39673-1.27518,1.86072-2.0629
			c0.78366-1.33051,1.50879-2.72873,2.01703-4.18292c3.72324-10.65317,6.82199-21.48395,9.13864-32.53551
			c1.2002-5.72549,0.89816-11.5562,1.28403-17.33618c1.02756-15.39304,3.36447-30.52473,8.40848-45.16415
			c2.66888-7.74602,5.79224-15.27811,10.24182-22.20042c2.84558-4.42688,6.09253-8.50513,10.29416-11.7401
			c2.94205-2.26521,6.13522-4.03236,9.78317-4.90977c7.58713-1.82486,14.67334,1.98592,17.16064,9.36292
			c1.702,5.04796,1.97812,10.2733,1.25024,15.50934c-1.44659,10.40591-5.04993,20.10788-10.16602,29.23199
			c-6.42868,11.46497-14.24405,21.91808-23.52969,31.24124c-1.72766,1.73462-3.52676,3.42076-5.44864,4.93106
			c-1.24036,0.97473-1.67236,2.0177-1.59781,3.54736c0.35403,7.26471,0.47208,14.54382,0.96234,21.79837
			c0.84888,12.56168,2.30365,25.06085,4.79752,37.41476c2.08142,10.31073,4.96121,20.44073,8.83145,30.22647
			c0.50494,1.27676,1.04868,2.58313,2.01511,3.55841c0.19574,0.19748,0.45554,0.39276,0.72586,0.3277
			C317.27237,337.87119,317.31787,337.8515,317.35928,337.82574z M300.04581,234.98682
			c0.20297,0.10501,0.40594,0.21001,0.60889,0.31502c0.81711-0.75058,1.65753-1.47743,2.44757-2.25546
			c6.841-6.73709,12.82739-14.17061,17.98889-22.26149c5.21329-8.17204,9.48077-16.77707,11.78635-26.25954
			c1.58902-6.53535,2.03177-13.08891,0.03589-19.60956c-1.72501-5.63548-4.99033-6.84006-10.06201-3.86331
			c-2.7485,1.6132-4.73373,3.98975-6.48691,6.57677c-3.69519,5.45268-6.41672,11.37233-8.30249,17.67438
			c-3.71219,12.4057-6.11911,25.0663-7.25497,37.9626C300.46362,227.16518,300.29468,231.07953,300.04581,234.98682z
			 M395.27545,253.85289c7.36813,2.20262,13.94128,0.15811,20.51608-2.41101c-0.12836-1.13457-0.19412-1.94337-0.31454-2.74399
			c-0.88968-5.9153-2.85864-11.3933-6.63751-16.11479c-2.13052-2.66205-4.66394-4.81194-7.97934-5.85851
			c-2.99106-0.94418-5.94681-1.00517-8.78171,0.56854c-5.6662,3.14539-8.29828,11.36034-5.23254,17.5298
			C393.21658,243.53403,397.34607,245.9507,395.27545,253.85289z M393.70215,260.69058
			c-0.17392,0.45581-0.31079,0.67142-0.33517,0.89911c-0.77643,7.25415-1.02423,14.51797,0.41174,21.70932
			c0.55429,2.77597,1.42386,5.54218,2.55505,8.13608c1.36566,3.13168,2.79037,3.4184,5.4809,1.2594
			c1.57147-1.26102,2.99936-2.79001,4.19254-4.41782c4.71417-6.43155,7.64072-13.65506,8.97525-21.50308
			c0.48761-2.86755,0.73618-5.77579,1.14194-9.05399C408.55807,260.50903,401.26785,261.95044,393.70215,260.69058z
			 M543.59888,264.32355c7.4519-0.39441,13.27142-5.11057,14.85004-11.79958c0.43817-1.85699,0.52795-3.72867-0.21283-5.5425
			c-1.23907-3.03397-4.00739-3.9361-6.4859-1.82106c-1.51007,1.28859-2.7746,3.00925-3.74213,4.76079
			C545.57306,254.32872,544.60077,259.22647,543.59888,264.32355z M260.62411,255.85393
			c4.38818-1.42091,9.41327-7.1544,9.44891-12.9095c0.01086-1.75763-0.44809-3.38458-1.57501-4.77298
			c-1.32114-1.62762-2.18869-1.71916-3.54715-0.17619c-0.73984,0.84033-1.34113,1.84569-1.82306,2.86278
			C260.90845,245.54169,260.67126,250.56007,260.62411,255.85393z"/>
		<path fill="#cda56b" d="M347.13879,368.97708c-0.4743-0.2229-0.7587-0.37375-1.0556-0.49362
			c-13.56088-5.47501-16.82373-20.98074-10.58435-31.78665c4.35565-7.54346,10.83417-12.21399,19.86658-12.26852
			c6.65036-0.04013,11.89822,3.11395,16.13498,8.05518c4.75427,5.54474,7.45984,12.03781,8.66345,19.19321
			c0.3082,1.83206,0.55179,3.67499,0.86893,5.80826c1.46237-0.53958,2.80399-0.88464,3.98065-1.53036
			c1.14182-0.62662,1.88889-2.6503,2.33395-3.80524c0.76382-1.98203,1.56149-3.95508,2.69281-5.76169
			c1.64493-2.62677,4.34775-5.41946,7.65295-5.55716c3.08432-0.12848,4.74423,2.50574,4.48312,5.36407
			c-0.35626,3.89902-1.09528,7.76196-1.62155,11.64679c-0.75815,5.59683-1.22556,11.21188-0.80978,16.86554
			c0.06403,0.87051,0.22018,1.73422,0.41681,3.23523c0.88864-1.02493,1.45178-1.55975,1.87906-2.18707
			c1.88535-2.76788,3.75925-5.54443,5.58597-8.3512c4.77615-7.33853,9.67603-14.62314,14.0307-22.2233
			c0.6618-1.15503,1.34143-2.35004,2.4024-3.15402c1.70178-1.28964,4.22736-1.28018,6.00494-0.09723
			c4.55936,3.03415,2.34277,10.52823,1.67358,14.87347c-0.65576,4.25815-1.41229,8.49988-2.09262,12.75403
			c-1.46576,9.16565-2.10794,18.01804-1.50223,27.25031c0.0289,0.44098,0.24951,0.86932,0.53503,1.80847
			c4.90817-6.2804,7.15887-13.9071,9.66223-21.3392c2.78195-8.25912,5.18924-16.65289,6.95901-25.18973
			c0.08875-0.42804,0.17587-0.85635,0.26138-1.28503c0.55835-2.79904,0.85855-5.65204,1.20862-8.48871
			c0.11691-0.94751,0.01849-1.92163,0.01849-3.19562c-0.97186,0-1.84293,0.01437-2.71341-0.00235
			c-5.17316-0.09927-10.26822-0.72095-15.20004-2.36136c-2.89166-0.96182-5.621-2.23953-7.86407-4.36957
			c-3.84781-3.65384-5.1319-8.13135-3.7858-13.19955c3.57333-13.45361,19.50903-16.59454,28.01062-8.08359
			c4.71405,4.7193,6.84323,10.42587,7.5018,16.86484c0.12381,1.21048,0.21542,2.42429,0.33655,3.80289
			c1.97165-0.0658,3.97745-0.37747,5.84335-1.01895c1.93958-0.66678,3.86624-1.61502,5.96799-1.5415
			c2.78824,0.09753,5.01788,2.03888,6.06705,4.53033c1.21405,2.88303,0.86972,5.66089,0.55499,8.6925
			c-0.34344,3.30795-0.81863,6.60028-1.3028,9.89001c-1.26279,8.58014-2.50101,17.228-2.15961,25.92099
			c0.11417,2.90695,0.64444,5.8446,1.37402,8.66751c0.77945,3.01572,2.02304,3.21881,4.12659,0.83344
			c4.29904-4.87491,7.12277-11.30002,10.34848-16.91418c2.33688-3.50534,4.24673-7.39117,6.34622-11.0452
			c1.0802-1.88004,2.1611-3.75967,3.24063-5.64011c0.79788-1.38989,1.97147-3.15921,3.81638-2.12048
			c1.17163,0.65964,1.46161,1.8522,0.68076,3.41293c-1.86426,3.7261-3.76001,7.43698-5.68845,11.13028
			c-3.54245,6.78424-7.02795,13.60547-10.8591,20.23401c-1.84387,3.19025-3.94,6.57071-7.19769,8.48892
			c-3.73743,2.20065-7.88614,1.57727-11.23837-1.05402c-2.47513-1.94278-4.37372-4.38809-5.91089-7.12451
			c-2.81-5.0022-4.13611-10.43991-4.84457-16.08246c-1.26181-10.05008,0.63297-19.6843,3.70639-29.17599
			c0.34586-1.06824,0.68472-2.1387,1.04465-3.26382c-0.41733-0.09164-0.65488-0.20563-0.87784-0.18207
			c-0.96841,0.10245-1.93262,0.24496-3.05551,0.39374c-0.3446,2.53964-0.63922,5.03122-1.02643,7.5083
			c-1.58331,10.12943-4.60242,19.88525-7.82394,29.58002c-2.71136,8.15955-5.19656,16.48441-9.24557,24.12183
			c-0.91705,1.72983-1.93115,3.44766-3.37057,4.77484c-4.05444,3.73831-9.05853,1.79153-12.16922-2.02722
			c-2.73639-3.35934-4.31808-7.28229-5.40637-11.43246c-2.05389-7.83215-1.88037-15.68896-0.28705-23.5647
			c0.08057-0.39835,0.13864-0.80164,0.19315-1.2045c0.00977-0.07196-0.04947-0.15329-0.172-0.49777
			c-0.47485,0.69766-0.89691,1.23953-1.2363,1.82901c-2.3645,4.10681-4.6727,8.2468-7.08728,12.32376
			c-0.78366,1.32315-1.70325,2.61807-2.7858,3.70078c-2.12949,2.1297-4.70108,2.47147-7.45996,1.29727
			c-2.09769-0.89282-3.63895-2.46118-4.97885-4.24548c-3.1911-4.24942-4.66925-9.12048-5.13156-14.34521
			c-0.11478-1.29709-0.13434-2.60257-0.20291-4.0123c-1.47171-0.16425-2.43536,0.87003-3.67654,1.13535
			c-0.3479,3.63342-0.61816,7.13089-1.03049,10.61154c-0.99106,8.36581-3.08627,18.76572-9.11426,25.0762
			c-2.03452,2.12988-4.74063,3.80405-7.68497,3.88647c-6.50089,0.18201-11.69952-6.26212-14.10574-11.61389
			c-2.75311-6.12335-3.50296-12.54147-2.6684-19.16959C346.72787,371.40182,346.9343,370.27954,347.13879,368.97708z
			 M374.11902,359.57294c0.04132-0.03253,0.07861-0.06958,0.10989-0.1127c0.13831-0.19061,0.12433-0.44821,0.10309-0.68277
			c-0.40378-4.45807-1.30231-8.9086-3.12-12.99927c-1.81766-4.09064-4.59567-7.81824-8.28745-10.3497
			c-1.76849-1.21265-3.78882-2.15689-5.92947-2.28201c-2.27509-0.133-4.54645,0.68369-6.39114,2.02191
			c-6.38998,4.63556-7.27277,13.92435-3.74649,20.61282c0.97812,1.85529,2.35986,3.59659,4.26923,4.46448
			c0.84213-1.04507,1.81882-2.03036,3.04623-2.57336c1.22739-0.54303,2.74997-0.57132,3.84195,0.20905
			c1.40414,1.00345,1.69995,2.93274,1.87781,4.64935c4.74689-0.04883,9.48297-0.99661,13.88309-2.77826
			C373.89529,359.70407,374.01898,359.6517,374.11902,359.57294z M358.83484,370.31662c0,1.43674-0.16611,3.07074,0.03427,4.65854
			c0.42847,3.39502,0.85321,6.81235,1.64697,10.13263c0.65869,2.75497,1.66028,5.46841,2.84628,8.04547
			c1.20599,2.62048,2.36591,2.68811,4.42725,0.62723c1.88226-1.88193,3.09567-4.19229,4.05469-6.64545
			c1.83304-4.68881,2.68222-9.58258,2.9295-14.58539c0.09506-1.9227,0.0155-3.854,0.0155-5.68878
			C369.4805,368.01074,364.33185,369.12598,358.83484,370.31662z M446.90646,332.38107
			c-0.2977-1.96072-0.48123-3.72424-0.84418-5.45001c-0.88199-4.19406-2.73923-7.83182-6.26074-10.46548
			c-2.55579-1.91138-5.37653-2.38049-8.32474-1.25323c-3.41516,1.30573-5.37103,3.95181-5.80624,7.54031
			c-0.42218,3.48138,1.84384,5.51224,4.59927,6.79379c2.33682,1.08691,4.89706,1.76196,7.41937,2.36392
			C440.61517,332.60864,443.61682,332.70724,446.90646,332.38107z"/>
		<path fill="#cda56b" d="M250.25186,328.88635c0.86838-0.52405,1.52768-0.95679,2.21802-1.33252
			c2.93834-1.59927,5.7919-3.40021,8.853-4.71695c4.18021-1.79819,8.55484-2.11572,12.88327-0.31531
			c2.07239,0.86206,3.89792,2.07855,4.9718,4.15631c0.58847,1.13846,0.49652,2.21579-0.40906,3.15796
			c-0.79294,0.82498-1.97192,0.98239-3.16681,0.37161c-0.57532-0.29407-1.0918-0.71426-1.60632-1.11414
			c-1.65002-1.28238-3.54117-1.68481-5.54776-1.36044c-1.44324,0.23334-2.91159,0.54117-4.25818,1.08807
			c-1.96024,0.79617-3.90439,1.70145-5.70425,2.8064c-2.57205,1.57898-5.00035,3.39108-7.50508,5.08133
			c-0.89139,0.6015-1.24709,1.37354-1.27592,2.46475c-0.55124,20.85065-0.73045,41.6843,2.48022,62.38507
			c1.69536,10.93076,3.70154,24.00897,10.49063,33.0853c2.05167-1.01123,2.72723-3.49268,3.13074-5.58438
			c1.24985-6.47906,2.93875-13.35492,0.36316-19.74619c-2.65872-6.46942-3.05292-13.33215-1.56406-20.2334
			c0.08517-0.39481,0.15707-0.79248,0.23346-1.1803c-0.17648-0.23593-0.28262-0.47604-0.46631-0.60916
			c-7.95471-5.76389-11.24272-17.83545-3.45139-28.4176c8.2229-11.16824,24.58023-15.90054,38.24158-3.56201
			c2.8801,2.60123,5.06577,5.75916,6.85764,9.19153c0.3754,0.71906,0.74197,1.44272,1.25189,2.43539
			c0.80597-0.48972,1.53772-0.93185,2.26706-1.37796c3.28638-2.01019,6.61768-3.9086,10.50986-4.51675
			c3.56174-0.55655,6.76453,0.88254,8.37799,3.77588c0.52228,0.93665,0.64307,1.8688-0.0419,2.74899
			c-0.65921,0.84714-1.92587,0.95117-2.78317-0.03952c-1.38693-1.60281-2.95166-1.45923-4.67868-0.94669
			c-4.31564,1.28073-7.92325,3.78101-11.45145,6.4953c0.42599,3.07739,0.96014,6.04803,1.23013,9.04248
			c1.0733,11.90485-1.42236,23.08832-7.21756,33.50055c-1.21652,2.18573-2.82529,4.23264-4.578,6.02625
			c-6.55313,6.70599-14.98569,7.33844-22.61838,1.84039c-1.24051-0.89362-2.38449-1.92133-3.88879-3.14359
			c-0.23026,2.05295-0.32217,3.81372-0.64401,5.53143c-0.56992,3.04178-0.92197,6.21802-2.13861,9.09061
			c-0.98743,2.33133-2.75504,4.80554-5.24918,5.6373c-2.89941,0.96689-5.98425-0.32202-8.34784-1.98999
			c-3.47313-2.45099-6.00533-5.75797-8.13611-9.37708c-4.23537-7.19357-6.63913-15.07181-8.51328-23.13779
			c-2.02353-8.70908-2.8158-17.57941-3.38139-26.47388c-0.62297-9.79684-0.75597-19.59973-0.18471-29.40588
			c0.02197-0.37704-0.04724-0.7594-0.09402-1.42426c-0.9001,0.50739-1.5914,0.88727-2.27341,1.28311
			c-5.9698,3.46478-12.16298,6.46112-19.03461,7.54724c-9.64302,1.5242-17.80135-1.27771-23.89067-9.12939
			c-2.41171-3.10971-3.83366-6.70477-3.55174-10.70566c0.1172-1.66296,0.63306-3.38101,1.35635-4.88733
			c0.44235-0.9212,1.51715-1.73328,2.49706-2.15738c1.5701-0.67957,3.15715,0.54788,3.24268,2.26324
			c0.01204,0.24127-0.05305,0.48575-0.07401,0.72943c-0.66716,7.7572,3.55409,13.70761,11.26743,15.81561
			c4.21458,1.15176,8.42595,0.94559,12.57619-0.32101c6.3895-1.95001,12.23595-4.9744,17.61948-8.9386
			c1.15956-0.85385,1.33932-1.92111,1.47568-3.16351c0.69522-6.3345,1.351-12.6785,3.00928-18.85803
			c0.40155-1.49637,0.85585-2.98593,1.40926-4.43143c0.31555-0.82419,0.77501-1.64471,1.35234-2.3078
			c1.88304-2.16287,4.89981-1.7673,5.94392,0.90005c0.61169,1.56271,0.8365,3.32483,0.96657,5.01791
			c0.25647,3.33875,0.32286,6.69199,0.47681,10.03882C250.09622,327.87051,250.17105,328.24957,250.25186,328.88635z
			 M279.52359,390.49927c-0.24182,8.09732,1.05255,15.6181,5.04083,22.5365c0.52402,0.90894,1.20898,1.75067,1.93671,2.51132
			c1.621,1.69443,3.25424,1.99619,5.29572,0.82303c1.18317-0.67987,2.40216-1.51587,3.21179-2.58057
			c1.56677-2.06042,3.17978-4.19141,4.20093-6.54193c3.59506-8.27521,4.66565-16.91785,3.00836-25.83853
			c-0.11127-0.59894-0.3313-1.17761-0.56702-1.99582C294.98953,384.7171,287.98633,388.76642,279.52359,390.49927z
			 M299.58276,372.52274c-1.3609-3.04849-3.0686-5.98062-5.3869-8.38287s-5.28763-4.25562-8.56912-4.86975
			c-8.70221-1.6286-18.37372,6.98663-15.1048,16.02322c1.44617-1.65863,3.11856-3.11975,4.95627-4.3302
			c1.30917-0.86234,2.76434-1.61551,4.33087-1.67517c1.56656-0.05963,3.25409,0.74155,3.80948,2.20755
			c0.49155,1.29745,0.02124,2.74017-0.44791,4.0459c-0.6843,1.90442-1.36856,3.80884-2.05283,5.71326
			C287.94827,380.40338,294.00055,376.54999,299.58276,372.52274z"/>
		<path fill="#cda56b" d="M329.67056,531.58148c0.60303-3.11536,1.2872-6.21765,1.79352-9.34863
			c1.36945-8.46899,2.64624-16.95294,4.00381-25.42389c0.23013-1.43585-0.04727-2.71927-0.52472-4.05646
			c-4.2973-12.03555-0.14496-26.58398,9.9566-34.211c7.474-5.64307,15.56854-6.81052,24.15277-2.50281
			c0.28473,0.14288,0.58762,0.24957,1.10684,0.4675c0.23984-0.92938,0.47531-1.75665,0.66605-2.59409
			c3.68927-16.19635,10.13614-32.76523,22.96725-43.90424c4.09283-3.55307,9.66058-6.65457,14.71646-4.70172
			c3.4054,1.31534,5.67386,4.7341,6.43512,8.30447c1.62881,7.63931-1.95996,16.23535-5.32227,22.95578
			c-3.46497,6.92566-8.20349,13.15872-13.92322,18.37735c-2.46909,2.25278-5.15942,4.27231-7.8324,6.28717
			c-0.91141,0.68698-1.49213,1.40057-1.69928,2.52112c-2.68655,14.53281-3.05386,29.0712-0.08688,43.60901
			c0.39081,1.91495,1.00229,3.789,1.58856,5.65787c0.25809,0.82251,0.70935,1.58441,1.30441,2.87659
			c0.82599-1.47736,1.52151-2.4549,1.95325-3.53766c2.48053-6.22079,4.99539-12.43079,7.31454-18.71237
			c3.28223-8.89017,6.41928-17.83417,9.5802-26.76868c0.51581-1.45801,0.85657-2.9801,1.24078-4.48215
			c1.12057-4.38074,2.68835-8.60202,5.08835-12.42932c1.24142-1.97974,2.71777-3.94373,4.49506-5.42712
			c3.22006-2.68765,7.04321-1.14059,7.55814,3.03357c0.285,2.31024,0.10754,4.74283-0.26297,7.05597
			c-1.00742,6.29025-2.35471,12.5267-3.32883,18.82141c-0.91565,5.91687-0.88199,11.89093-0.29901,17.85318
			c0.04745,0.48492,0.14981,0.96912,0.27744,1.43988c0.07877,0.29068,0.25378,0.55527,0.55646,1.18967
			c0.83173-1.18848,1.61975-2.10269,2.17072-3.14255c1.49142-2.81454,2.91675-5.66559,4.30637-8.5322
			c4.34805-8.96957,8.68021-17.94693,12.97903-26.94019c0.4473-0.93576,0.70572-1.98157,0.92346-3.00366
			c0.7988-3.74908,1.41345-7.54245,2.35025-11.25537c0.93378-3.70111,2.86761-7.10846,5.92062-9.4588
			c0.74628-0.57449,1.55899-1.08737,2.46429-1.34689c0.9053-0.25955,1.9173-0.24466,2.74933,0.19656
			c1.02606,0.54413,1.64664,1.66342,1.87021,2.80316c0.68182,3.47635-0.50735,7.70905-0.94818,11.17041
			c-0.49872,3.91599-1.01038,7.83035-1.50226,11.74722c-0.11832,0.94202-0.12665,1.89792,0.19644,2.95944
			c0.35764-0.78799,0.7243-1.57196,1.0715-2.3645c6.36084-14.52048,14.78278-27.65469,26.21594-38.73163
			c1.86954-1.81125,3.88553-3.53259,6.05386-4.96161c4.50299-2.96759,9.38263-1.15225,11.60062,3.53427
			c1.34,2.8313,0.95209,6.16196,0.70386,9.23926c-0.29233,3.62347-0.91327,7.21326-1.67056,10.76605
			c-2.34497,11.00143-5.98715,21.68314-8.68372,32.60373c-2.89063,11.70654-6.02499,26.08063-1.23926,37.61044
			c1.25101-0.31592,2.29181-2.43091,2.92413-3.48834c8.49521-14.20731,15.62836-29.31192,23.41699-43.91565
			c0.46594-0.88184,0.8385-1.67804,0.44171-2.76163c-3.45313-9.42899-1.73596-18.37796,2.87268-26.9097
			c4.83508-8.95099,12.00488-15.43393,21.53796-19.12125c5.40192-2.08936,10.96771-2.41599,16.61023-0.9364
			c3.06293,0.80316,5.71875,2.36072,8.22748,4.37628c0.297-0.08749,0.6084-0.15103,0.89783-0.2688
			c3.3385-1.35846,6.38745-0.65826,8.77704,1.82928c1.60718,1.67307,2.90155,3.74509,3.95569,5.83078
			c2.34326,4.63644,3.3432,9.72714,4.30688,14.77841c1.31604,6.89905,2.4101,13.84045,3.59961,20.76367
			c0.15161,0.88232,0.30566,1.76428,0.48938,2.8237c0.58459-0.19647,1.11682-0.30762,1.58636-0.54355
			c5.15924-2.59241,9.81152-5.84781,13.62561-10.24905c1.16937-1.34937,2.38458-2.67285,3.64301-3.93988
			c1.07526-1.08258,2.03638-2.479,3.29498-3.34637c1.14948-0.79218,3.07336-0.79224,3.62323,0.49091
			c0.43542,1.01611-0.24304,2.13986-0.90051,3.02863c-3.08783,4.17419-6.44574,8.20016-10.39294,11.59393
			c-4.14093,3.56036-8.94586,5.7811-13.75024,8.27542c0.08899,1.34827,0.13788,2.79559,0.2868,4.23257
			c1.02075,9.85086,1.60083,19.70538,0.83411,29.61371c-1.08215,13.98532-4.61481,27.1918-12.08521,39.19394
			c-4.03082,6.47595-9.02698,12.01221-15.65887,15.93024c-10.70294,6.32312-21.73804,5.61786-31.55664-2.03076
			c-7.45471-5.80719-11.83624-13.48083-13.18256-22.76056c-2.44543-16.85541,2.55829-31.30881,14.58087-43.33087
			c2.50781-2.50766,5.44122-4.43018,8.77594-5.7114c5.01031-1.92502,9.77386-1.37207,14.328,1.3768
			c0.5578,0.33664,1.08905,0.71707,1.66229,1.09689c2.4433-2.55197,4.74878-5.20557,7.31732-7.57385
			c2.5705-2.37006,5.40381-4.45505,8.33215-6.83591c-2.40704-11.76041-4.83942-23.64487-7.34131-35.86893
			c-0.51514,0.72818-0.91492,1.20001-1.21283,1.72931c-2.12421,3.77411-4.20746,7.57138-6.34235,11.33942
			c-3.0661,5.4115-6.4137,10.63971-10.35175,15.46729c-2.07959,2.54932-4.43781,4.80191-7.29559,6.48047
			c-6.09698,3.58118-12.14679,2.92133-17.32947-1.89185c-0.89288-0.82919-1.75885-1.68735-2.77161-2.66129
			c-0.38025,0.69089-0.78687,1.37909-1.14673,2.09091c-3.83405,7.58508-7.66196,15.17325-11.49509,22.75879
			c-1.91653,3.79276-3.83438,7.5849-5.75491,11.37564c-1.78253,3.51831-3.40143,7.25296-5.57159,10.55438
			c-3.12839,4.75909-8.52802,5.63531-12.34647,1.06128c-6.76682-8.10577-9.37781-19.56543-9.86685-29.86484
			c-0.50125-10.55655,0.9946-20.89954,3.7666-31.02844c1.95969-7.16068,4.46756-14.17136,6.73328-21.2482
			c0.2652-0.82834,0.54657-1.65155,0.46368-2.73141c-0.75879,0.6857-1.54297,1.34549-2.2724,2.06113
			c-8.0737,7.92157-13.67456,17.45129-18.00546,27.79538c-3.42484,8.18015-5.53574,16.73947-7.25015,25.41077
			c-0.20554,1.03955-0.39371,2.10339-0.77597,3.08344c-1.45859,3.73962-6.01987,4.45566-8.47363,1.2496
			c-0.91672-1.19778-1.6196-2.70105-1.95975-4.17154c-0.99216-4.2894-1.7561-8.63174-2.59888-12.95544
			c-0.13617-0.69843-0.21771-1.4075-0.397-2.58911c-0.51721,0.82645-0.84512,1.23196-1.0481,1.6925
			c-3.32791,7.55066-6.62616,15.11444-9.96451,22.66049c-0.95743,2.16422-2.00201,4.29077-3.04721,6.41461
			c-0.28592,0.5809-0.69098,1.1109-1.08871,1.62784c-3.65997,4.75665-8.8783,5.11844-13.04904,0.80698
			c-3.6369-3.75964-5.44608-8.47583-6.66132-13.45798c-0.25082-1.02823-0.43665-2.07227-0.74039-3.53192
			c-0.40704,0.76297-0.70706,1.17941-0.86563,1.64417c-3.27103,9.58777-6.51312,19.18539-9.79449,28.76962
			c-0.68695,2.00647-1.35727,4.04138-2.29321,5.93579c-2.96274,5.99664-8.22375,6.83752-12.76379,1.87695
			c-2.1282-2.32532-3.92853-5.02557-5.49878-7.77228c-4.15564-7.26901-6.1868-15.25116-7.33545-23.48547
			c-0.18033-1.29251-0.35559-2.58575-0.59329-4.31625c-0.43033,0.71158-0.72165,1.1022-0.91986,1.53543
			c-1.7327,3.78687-3.36615,7.62216-5.2074,11.35504c-0.82239,1.66727-1.91107,3.25458-3.12274,4.66934
			c-4.59573,5.36606-11.216,5.99677-16.82825,1.68698c-1.02481-0.78702-1.96155-1.68875-3.25793-2.81448
			c-0.34128,2.20029-0.65222,4.09149-0.92563,5.98807c-1.26309,8.76202-1.34363,18.94287-4.68915,27.2243
			c-0.7377,1.82605-2.06348,3.55334-3.94608,4.13159c-2.23926,0.68774-4.67502-0.42303-6.41006-1.99683
			c-6.18921-5.61395-9.93933-13.66046-12.43231-21.47955c-2.54678-7.98773-3.89395-16.1904-4.42542-24.54105
			c-0.05017-0.78821-0.11502-1.5755-0.20786-2.83621c-0.57288,0.78079-0.86755,1.20755-1.18759,1.61441
			c-1.76096,2.23874-3.30136,4.70966-5.33978,6.65933c-4.40771,4.21576-9.66098,4.87756-15.22678,2.57532
			c-4.88608-2.02112-8.28604-5.71332-10.82883-10.25659c-0.39554-0.7067-0.73444-1.44513-1.25317-2.47345
			c-0.36221,0.74176-0.66428,1.24619-0.86459,1.78821c-2.64786,7.16492-4.86758,14.8038-8.3147,21.63412
			c-1.5304,3.03244-3.92664,5.87625-7.19846,6.78909c-1.97511,0.55109-4.10072,0.3443-6.06569-0.24237
			c-13.30014-3.97141-21.16508-20.82211-22.5116-33.46933c-0.26701-2.50793-0.34169-5.03635-0.52188-7.81787
			c-7.26395-0.35864-10.95148-5.50815-14.58647-11.05328c-0.1783,1.9075-0.3632,3.81439-0.53381,5.7226
			c-0.84074,9.40283-1.76677,18.8009-3.01231,28.15985c-1.07941,8.11047-1.35724,18.72263-5.86214,25.81693
			c-0.87276,1.37439-1.9857,2.63763-3.4127,3.42145c-2.7776,1.52563-6.32513,0.96942-9.07584-0.60437
			c-7.32941-4.19348-12.30656-13.2063-15.42326-20.7243c-4.10258-9.89612-6.33942-20.25555-7.36382-30.88141
			c-1.11459-11.56165-1.78191-23.14484-1.06273-34.76654c0.02502-0.40442,0.00316-0.8118-0.34265-1.31366
			c-0.20743,0.76382-0.44553,1.52081-0.61761,2.29254c-2.1158,9.48849-4.15872,18.99387-6.36601,28.46097
			c-0.73967,3.17245-1.78261,6.28851-2.89844,9.35339c-0.63542,1.7453-1.5305,3.45337-2.60217,4.97098
			c-2.44582,3.46353-6.24445,4.42752-9.9265,2.31592c-2.01234-1.15399-3.83826-2.78476-5.42334-4.50064
			c-3.30026-3.5726-5.59662-7.8291-7.57384-12.2515c-4.85609-10.86154-6.92114-22.28421-6.58864-34.12787
			c0.12586-4.48312,0.70971-8.95331,1.08002-13.42981c0.04634-0.56015,0.06333-1.12277,0.10873-1.95612
			c-0.57806,0.36746-0.99823,0.57028-1.34205,0.86285c-3.83725,3.26508-8.44178,5.4939-13.3411,6.63608
			c-4.75995,1.10968-9.66307,1.62637-13.51922,4.96884c-2.73471,2.37042-4.4096,5.75153-5.4799,9.20868
			c-1.06834,3.45084-1.60217,7.06659-1.57661,10.67896c0.00711,1.00449,0.04214,2.07104-0.46624,2.93738
			c-1.62933,2.77661-3.71481-0.49237-3.9586-2.21033c-0.91743-6.46497,1.24154-14.25696,4.51055-19.84106
			c4.41307-7.53839,11.54848-9.82535,19.65073-11.34085c7.55836-1.41376,12.9243-5.97015,17.26563-11.98859
			c0.41286-0.57239,0.57677-1.33319,0.81577-2.02057c1.07248-3.08469,2.06122-6.20081,3.22496-9.25034
			c0.51813-1.35776,1.25792-2.67191,2.11044-3.85168c1.36723-1.89212,3.38155-2.53253,5.39999-1.89734
			c2.09929,0.66064,3.35718,2.17609,3.4169,4.31601c0.08179,2.93045-0.00792,5.8822-0.26895,8.80292
			c-1.13513,12.70096-2.42,25.38849-1.69067,38.17392c0.58069,10.17966,2.39713,20.10873,5.87094,29.70718
			c0.62703,1.73254,1.23654,3.52347,2.95126,5.15936c0.90524-2.05536,1.92851-3.83783,2.49121-5.75543
			c1.86211-6.3457,3.66739-12.7124,5.29681-19.12128c4.48941-17.65768,8.93233-35.32581,14.72792-52.61688
			c0.20766-0.6196,0.38194-1.25336,0.63356-1.85471c1.49403-3.57062,5.68794-4.51913,8.42116-1.74103
			c1.03856,1.0556,1.91014,2.54117,2.23726,3.9726c0.57768,2.52786,0.96268,5.16763,0.93315,7.75494
			c-0.15297,13.40347-0.37062,26.80768-0.74571,40.20667c-0.32529,11.61938-0.29465,23.21201,1.31862,34.7485
			c1.29419,9.25464,3.42316,18.30676,6.86751,27.01324c0.74907,1.89359,1.64838,3.74136,2.63896,5.52084
			c0.65958,1.18494,1.60387,2.21143,2.47556,3.38245c1.50674-0.75879,2.02419-1.99646,2.37717-3.1991
			c0.98784-3.36578,2.00229-6.73856,2.70569-10.17017c2.39836-11.70084,3.77-23.55502,4.98373-35.42551
			c0.64-6.25931,1.23305-12.52551,1.69778-18.79971c0.21031-2.83926,0.05006-5.70551,0.06918-8.55948
			c0.03609-5.38776,0.05829-10.77576,0.14313-16.16275c0.01389-0.88211,0.22591-1.79059,0.50749-2.633
			c0.65465-1.9585,2.14931-2.95078,4.07996-2.83936c1.87801,0.10837,3.35016,1.32428,3.69702,3.33371
			c0.31885,1.84732,0.43674,3.73212,0.59029,5.60474c0.50746,6.18863,0.88113,12.39053,1.52087,18.56509
			c0.45549,4.3963,1.48378,8.69794,3.34663,12.74994c1.04729,2.27805,2.38033,4.30423,4.88927,5.21347
			c0.29312,0.10623,0.61316,0.13818,1.16524,0.25732c0.32059-1.0448,0.61314-2.03644,0.92877-3.02069
			c1.94624-6.06918,5.05583-11.35657,10.44502-15.00156c5.93988-4.01736,12.24516-4.83444,18.79813-1.61246
			c7.00897,3.44623,9.77261,11.43597,6.4339,18.26471c-1.06894,2.18634-2.63586,3.93707-4.68985,5.22409
			c-4.03165,2.52625-8.4059,3.95761-13.19661,3.99222c-0.63663,0.00458-1.27332,0.00061-2.04797,0.00061
			c-0.11031,0.95255-0.26454,1.7413-0.28371,2.53336c-0.21568,8.9176,0.64647,17.65308,4.82285,25.72958
			c0.88768,1.71671,2.06274,3.35059,3.38579,4.75934c1.58647,1.68921,2.93446,1.63373,4.29207-0.23618
			c1.32867-1.82996,2.47333-3.86133,3.32721-5.95575c2.71387-6.65659,5.31641-13.36053,7.83878-20.09235
			c1.51703-4.04871,2.76529-8.19717,4.20306-12.27664c3.94162-11.18362,11.63327-18.11343,23.37772-20.25995
			c3.93805-0.71979,7.81433-0.01996,11.58359,1.25418c0.75644,0.25571,1.51361,0.50925,2.37366,0.79852
			c0.74191-2.46161,1.40967-4.81195,2.15887-7.13608c1.85684-5.7605,3.94766-11.42972,6.78299-16.79614
			c3.90396-7.38892,9.66083-15.40567,17.52618-18.87189c2.64377-1.1651,5.72385-1.76511,8.40991-0.70108
			c2.43362,0.96402,4.21661,3.20468,5.06082,5.68246c1.00388,2.94647,0.80997,6.14471,0.23413,9.15741
			c-1.8783,9.82806-6.89746,17.94421-13.83734,24.91248c-3.33566,3.34933-7.01688,6.36279-10.63669,9.41553
			c-1.01755,0.85809-1.55081,1.73926-1.76404,3.03287c-2.1629,13.12433-2.79587,26.32315-1.91919,39.5871
			c0.64972,9.82983,2.46255,19.44135,5.8208,28.72968c0.27686,0.76587,0.64041,1.50055,0.96951,2.24719
			c0.09653,0.21893,0.21313,0.42902,0.32056,0.64325C329.19235,531.71185,329.43143,531.64667,329.67056,531.58148z
			 M553.21295,488.70648c-2.32709-2.07104-4.94934-2.75613-7.93475-2.04474c-3.88898,0.92667-6.95239,3.23407-9.5968,6.08224
			c-9.27148,9.98584-13.00311,21.75223-10.76013,35.21841c1.4353,8.61713,6.2619,14.96411,13.99139,19.02411
			c4.65039,2.44263,9.43536,2.47345,14.14703,0.17432c1.74884-0.85345,3.42188-1.92444,4.97888-3.09631
			c3.57819-2.69305,6.28009-6.18481,8.53064-10.0188c5.29681-9.02386,8.27356-18.78571,9.31128-29.1861
			c0.7926-7.94287,0.34839-15.83823-0.62317-23.72272c-0.30603-2.48352-0.78058-4.94626-1.24591-7.84164
			c-5.42273,3.73242-9.83264,7.8476-13.54926,12.62509c0.84308,1.48041,1.63959,2.72186,2.28418,4.03778
			c2.8761,5.87149,3.82208,11.95792,1.7644,18.29895c-1.13922,3.51083-3.31183,6.18103-6.79803,7.604
			c-5.13397,2.09552-10.61304-1.02142-11.40405-6.49289c-0.15039-1.04037-0.14392-2.12-0.07434-3.17255
			c0.23596-3.56424,1.38409-6.8793,2.9837-10.03629C550.46704,493.69421,551.82568,491.28455,553.21295,488.70648z
			 M307.94202,460.86453c-2.73367-1.42471-5.55563-1.36752-8.37268-0.7403c-9.08151,2.022-16.50504,10.9278-15.24017,22.58746
			c0.36121,3.32968,1.58936,6.32956,4.0806,8.67679c2.49979,2.35532,5.48282,2.58887,8.21548,0.51627
			c1.21841-0.9241,2.40359-2.02542,3.24911-3.28455c3.522-5.2449,6.39328-10.7793,6.9679-17.24014
			C307.15164,467.90063,307.56558,464.43045,307.94202,460.86453z M534.43561,452.75989
			c0.20624,1.32361,0.39618,3.2767,0.84131,5.16983c0.36304,1.54395,1.0238,1.88528,2.54163,1.33289
			c1.2854-0.4678,2.63269-1.05359,3.63806-1.94278c2.13342-1.88708,4.22858-3.86755,6.04437-6.05475
			c6.16327-7.42416,10.61444-15.86343,14.19379-24.77988c1.2215-3.04288,0.63367-4.19772-2.5979-4.99704
			c-1.07013-0.26468-2.27698-0.23651-3.37872-0.06653c-3.75739,0.57959-6.8866,2.4516-9.64532,4.99832
			C538.57037,433.34579,535.20093,442.12466,534.43561,452.75989z M368.89136,466.40536
			c-3.03998-3.13934-10.22321-3.19305-14.17264,0.36887c-2.7944,2.52026-4.79065,5.57141-5.87991,9.14746
			c-1.62509,5.33533-1.7778,10.76736-0.44568,16.18301c0.38354,1.55927,1.06375,3.09381,1.86661,4.49103
			c1.42911,2.48718,3.02139,2.77927,5.1312,0.80328c1.46762-1.37451,2.76202-3.01523,3.82196-4.7298
			C364.20602,484.5925,367.05743,475.71167,368.89136,466.40536z M388.98401,452.39377
			c0.76013-0.58502,1.28802-0.94327,1.76126-1.36325c3.50314-3.10876,6.53284-6.6322,9.13333-10.52432
			c2.92117-4.3721,5.47852-8.92453,6.51831-14.15286c0.65021-3.26929,1.05243-6.564-0.07321-10.24396
			c-1.05676,0.9968-2.08124,1.69565-2.75,2.64505c-1.87674,2.66452-3.82111,5.31775-5.35324,8.18167
			c-4.06433,7.59744-6.68649,15.77271-9.12363,24.00406C388.99155,451.29572,389.03333,451.69476,388.98401,452.39377z
			 M326.07813,449.25409c0.15414,0.0769,0.30829,0.15378,0.46243,0.23065c6.69217-5.80939,12.55405-12.28287,15.7359-20.76163
			c0.73373-1.95511,1.08453-4.09891,1.30426-6.18823c0.18997-1.80615,0.02539-3.67764-1.17715-5.63535
			c-1.16757,1.02008-2.29324,1.73303-3.05542,2.72522c-1.63425,2.1275-3.28671,4.28696-4.56519,6.63306
			c-3.68185,6.75647-6.33273,13.9454-8.40927,21.34695C326.22348,448.14005,326.17429,448.70364,326.07813,449.25409z
			 M245.68063,469.66245c1.64468,0,2.95624,0.15561,4.21677-0.03189c2.7621-0.4108,5.41975-1.22778,7.54483-3.15912
			c2.11331-1.92062,2.21698-5.09625,0.33322-7.23831c-1.73126-1.9686-4.48984-2.00391-6.74542-0.06635
			c-0.43013,0.36951-0.83299,0.78174-1.19342,1.21951C247.66762,463.02081,246.52673,466.10883,245.68063,469.66245z
			 M556.08911,492.16446c-2.42175,4.38223-4.22937,8.41681-4.66022,12.95587c-0.05341,0.56226-0.03131,1.14017,0.02869,1.70309
			c0.22839,2.14404,1.05469,3.45996,2.35236,3.57608c1.80853,0.1618,2.78149-1.06165,3.63928-2.40314
			c0.04352-0.06812,0.08331-0.14023,0.11383-0.215C559.72021,502.48642,558.69342,497.51706,556.08911,492.16446z
			 M425.55051,428.51071c-2.76544-0.02853-5.11215,2.26971-5.13373,5.02768c-0.02209,2.82309,2.27765,5.08884,5.07321,4.99814
			c2.68442-0.08707,4.82684-2.31461,4.80511-4.99597C430.27246,430.74252,428.19293,428.53802,425.55051,428.51071z"/>
	</g>
</g>
</svg>
